<svg width="1678" height="265" viewBox="0 0 1678 265" fill="none" xmlns="http://www.w3.org/2000/svg">
<path d="M1637.29 260V5.20998H1677.65V260H1637.29Z" fill="white"/>
<path d="M1377.93 260L1467.53 5.20998H1517.46L1607.07 260H1563.97L1544.48 202.886H1440.85L1421.02 260H1377.93ZM1452.48 166.976H1532.17L1487.02 33.596H1498.31L1452.48 166.976Z" fill="white"/>
<path d="M1312.91 260V1.10599H1351.55V260H1312.91Z" fill="white"/>
<path d="M1190.03 264.104C1171.56 264.104 1155.15 259.886 1140.78 251.45C1126.65 242.786 1115.59 231.158 1107.61 216.566C1099.63 201.746 1095.64 185.216 1095.64 166.976C1095.64 148.28 1099.63 131.75 1107.61 117.386C1115.82 103.022 1126.76 91.736 1140.44 83.528C1154.12 75.092 1169.63 70.874 1186.95 70.874C1200.86 70.874 1213.29 73.268 1224.23 78.056C1235.18 82.844 1244.41 89.456 1251.93 97.892C1259.46 106.1 1265.16 115.562 1269.03 126.278C1273.14 136.994 1275.19 148.394 1275.19 160.478C1275.19 163.442 1275.08 166.52 1274.85 169.712C1274.62 172.904 1274.16 175.868 1273.48 178.604H1126.08V147.824H1251.59L1233.12 161.846C1235.4 150.674 1234.61 140.756 1230.73 132.092C1227.08 123.2 1221.38 116.246 1213.63 111.23C1206.11 105.986 1197.21 103.364 1186.95 103.364C1176.69 103.364 1167.57 105.986 1159.59 111.23C1151.61 116.246 1145.46 123.542 1141.13 133.118C1136.79 142.466 1135.08 153.866 1136 167.318C1134.86 179.858 1136.57 190.802 1141.13 200.15C1145.91 209.498 1152.53 216.794 1160.96 222.038C1169.63 227.282 1179.43 229.904 1190.37 229.904C1201.55 229.904 1211.01 227.396 1218.76 222.38C1226.74 217.364 1233.01 210.866 1237.57 202.886L1269.03 218.276C1265.39 226.94 1259.69 234.806 1251.93 241.874C1244.41 248.714 1235.29 254.186 1224.57 258.29C1214.09 262.166 1202.57 264.104 1190.03 264.104Z" fill="white"/>
<path d="M788.885 260V74.978H825.821V114.992L821.033 108.836C824.909 96.296 831.977 86.834 842.237 80.45C852.497 74.066 864.239 70.874 877.463 70.874C892.283 70.874 905.392 74.864 916.792 82.844C928.42 90.596 936.173 100.97 940.049 113.966L929.104 114.992C934.576 100.172 942.899 89.114 954.071 81.818C965.471 74.522 978.467 70.874 993.059 70.874C1005.83 70.874 1017.34 73.838 1027.6 79.766C1038.09 85.694 1046.41 93.902 1052.57 104.39C1058.72 114.878 1061.8 126.848 1061.8 140.3V260H1023.15V150.902C1023.15 141.554 1021.44 133.688 1018.02 127.304C1014.83 120.692 1010.27 115.676 1004.34 112.256C998.645 108.608 991.918 106.784 984.167 106.784C976.415 106.784 969.574 108.608 963.646 112.256C957.718 115.676 953.045 120.692 949.625 127.304C946.205 133.916 944.495 141.782 944.495 150.902V260H906.191V150.902C906.191 141.554 904.481 133.688 901.061 127.304C897.869 120.692 893.308 115.676 887.38 112.256C881.68 108.608 874.84 106.784 866.86 106.784C859.108 106.784 852.269 108.608 846.341 112.256C840.413 115.676 835.739 120.692 832.319 127.304C829.127 133.916 827.531 141.782 827.531 150.902V260H788.885Z" fill="white"/>
<path d="M646.57 264.104C634.03 264.104 622.972 261.938 613.396 257.606C604.048 253.046 596.752 246.89 591.508 239.138C586.264 231.158 583.642 221.81 583.642 211.094C583.642 201.062 585.808 192.056 590.14 184.076C594.7 176.096 601.654 169.37 611.002 163.898C620.35 158.426 632.092 154.55 646.228 152.27L710.524 141.668V172.106L653.752 182.024C643.492 183.848 635.968 187.154 631.18 191.942C626.392 196.502 623.998 202.43 623.998 209.726C623.998 216.794 626.62 222.608 631.864 227.168C637.336 231.5 644.29 233.666 652.726 233.666C663.214 233.666 672.334 231.386 680.086 226.826C688.066 222.266 694.222 216.224 698.554 208.7C702.886 200.948 705.052 192.398 705.052 183.05V135.512C705.052 126.392 701.632 118.982 694.792 113.282C688.18 107.354 679.288 104.39 668.116 104.39C657.856 104.39 648.85 107.126 641.098 112.598C633.574 117.842 627.988 124.682 624.34 133.118L592.192 117.044C595.612 107.924 601.198 99.944 608.95 93.104C616.702 86.036 625.708 80.564 635.968 76.688C646.456 72.812 657.514 70.874 669.142 70.874C683.734 70.874 696.616 73.61 707.788 79.082C719.188 84.554 727.966 92.192 734.122 101.996C740.506 111.572 743.698 122.744 743.698 135.512V260H706.762V226.484L714.628 227.51C710.296 235.034 704.71 241.532 697.87 247.004C691.258 252.476 683.62 256.694 674.956 259.658C666.52 262.622 657.058 264.104 646.57 264.104Z" fill="white"/>
<path d="M473.325 264.104C454.857 264.104 438.441 259.886 424.077 251.45C409.941 242.786 398.655 231.158 390.219 216.566C382.011 201.974 377.907 185.444 377.907 166.976C377.907 148.736 382.011 132.32 390.219 117.728C398.427 103.136 409.713 91.736 424.077 83.528C438.441 75.092 454.857 70.874 473.325 70.874C485.865 70.874 497.607 73.154 508.551 77.714C519.495 82.046 528.957 88.088 536.937 95.84C545.145 103.592 551.187 112.598 555.063 122.858L521.205 138.59C517.329 129.014 511.059 121.376 502.395 115.676C493.959 109.748 484.269 106.784 473.325 106.784C462.837 106.784 453.375 109.406 444.939 114.65C436.731 119.666 430.233 126.848 425.445 136.196C420.657 145.316 418.263 155.69 418.263 167.318C418.263 178.946 420.657 189.434 425.445 198.782C430.233 207.902 436.731 215.084 444.939 220.328C453.375 225.572 462.837 228.194 473.325 228.194C484.497 228.194 494.187 225.344 502.395 219.644C510.831 213.716 517.101 205.85 521.205 196.046L555.063 212.12C551.415 221.924 545.487 230.816 537.279 238.796C529.299 246.548 519.837 252.704 508.893 257.264C497.949 261.824 486.093 264.104 473.325 264.104Z" fill="white"/>
<path d="M0 40C0 17.9086 17.9086 0 40 0H220C242.091 0 260 17.9086 260 40V220C260 242.091 242.091 260 220 260H40C17.9086 260 0 242.091 0 220V40Z" fill="white"/>
<path d="M92.8958 151.413C93.6168 150.35 101.768 153.967 104.645 155.882C107.523 157.798 108.002 160.139 108.242 162.267C108.482 164.395 108.242 213.995 108.242 215.898C108.242 217.8 112.112 227 108.242 227H92.0454C90.1278 226.637 92.8957 219.408 92.8958 215.898C92.8958 215.898 92.1763 152.477 92.8958 151.413Z" fill="black"/>
<path d="M72.2202 32.1065C75.6812 32.1065 78.6404 34.5009 79.8525 37.8899C83.0965 35.1959 87.3665 33.5593 92.0454 33.5592C98.5748 33.5592 104.308 36.7457 107.567 41.5465C108.209 41.5286 115.143 41.3444 122.025 41.5483C129.25 41.7624 135.657 49.4039 136.29 57.7697C136.923 66.1351 130.769 70.1257 123.96 70.117C120.164 70.112 115.042 66.2636 115.014 66.2428C115.014 66.2428 111.871 62.6114 109.937 65.0324C108.003 67.4534 111.146 67.9375 111.629 69.6321C111.763 71.5034 106.364 73.8326 101.502 75.5451L101.474 75.6845C101.474 75.6845 94.463 82.2217 94.7048 94.569C95.4301 103.527 99.672 108.853 107.035 108.853C109.304 108.853 112.167 108.029 115.043 106.891C115.094 106.773 115.18 106.662 115.304 106.561C119.621 103.053 119.818 81.2531 141.851 81.253C160.862 81.253 165.16 97.0478 170.939 107.514C183.31 114.3 188.985 120.232 193.348 134.031C197.139 149.69 195.358 158.374 195.285 162.361C195.511 165.545 195.28 214.018 195.28 215.898C195.28 217.8 199.15 227 195.28 227H179.083C177.166 226.637 179.934 219.408 179.934 215.898C179.934 215.898 179.581 184.669 179.618 165.671C176.69 164.669 173.776 163.466 171.83 162.6C167.479 160.663 159.984 157.758 153.939 155.095C147.895 152.432 141.682 148.907 137.741 153.884C135.488 156.729 136.421 158.1 136.314 162.792C136.506 168.542 136.287 214.077 136.287 215.898C136.288 217.8 140.158 227 136.287 227H120.091C118.173 226.637 120.941 219.408 120.941 215.898C120.941 215.898 120.554 181.714 120.633 163.119C120.505 162.656 120.403 162.161 120.333 161.631C117.915 152.189 109.937 149.042 109.937 149.042L109.948 148.958C102.042 146.736 89.2982 142.417 83.8252 136.453C75.3632 127.253 71.0112 121.443 69.3188 106.432C67.6263 91.422 69.3188 74.0713 69.3188 67.2115C69.3187 60.352 70.2865 58.0117 73.1877 50.991C73.2707 50.79 73.347 50.5944 73.4227 50.4067C73.0301 50.4711 72.6288 50.5061 72.2202 50.5061C67.6803 50.5061 64 46.3869 64 41.3059C64.0002 36.2251 67.6804 32.1065 72.2202 32.1065Z" fill="black"/>
<path d="M151.096 162.038C151.807 161.127 159.865 164.225 162.708 165.865C165.552 167.505 166.026 169.509 166.262 171.331C166.499 173.154 166.262 214.718 166.262 216.347C166.263 217.976 170.087 226.758 166.262 226.758H150.257C148.361 226.447 151.039 219.353 151.039 216.347C151.039 216.347 150.385 162.95 151.096 162.038Z" fill="black"/>
<path d="M102.684 33.0753C104.144 31.9752 104.86 31.8642 106.552 32.1065C108.244 32.3488 113.563 37.9166 112.355 37.9174H108.97C108.487 36.4648 104.86 33.5597 102.684 33.0753Z" fill="black"/>
</svg>
